<?xml version="1.0" standalone="no"?>
<!DOCTYPE svg PUBLIC "-//W3C//DTD SVG 20010904//EN"
 "http://www.w3.org/TR/2001/REC-SVG-20010904/DTD/svg10.dtd">
<svg version="1.0" xmlns="http://www.w3.org/2000/svg"
 width="240.000000pt" height="240.000000pt" viewBox="0 0 240.000000 240.000000"
 preserveAspectRatio="xMidYMid meet">
<metadata>
Created by potrace 1.11, written by Peter Selinger 2001-2013
</metadata>
<g transform="translate(0.000000,240.000000) scale(0.100000,-0.100000)"
fill="#000000" stroke="none">
<path d="M651 2386 c-8 -10 -10 -298 -9 -1071 3 -995 4 -1058 21 -1069 12 -8
22 -8 35 0 16 11 17 73 20 1043 l2 1031 480 0 480 0 2 -1031 c3 -970 4 -1032
21 -1043 12 -8 22 -8 35 0 16 11 17 74 20 1069 1 773 -1 1061 -9 1071 -17 21
-1081 21 -1098 0z"/>
<path d="M892 2148 c-17 -17 -17 -279 0 -296 16 -16 200 -16 216 0 17 17 17
279 0 296 -8 8 -47 12 -108 12 -61 0 -100 -4 -108 -12z m148 -148 l0 -80 -40
0 -40 0 0 80 0 80 40 0 40 0 0 -80z"/>
<path d="M1292 2148 c-8 -8 -12 -56 -12 -148 0 -92 4 -140 12 -148 16 -16 200
-16 216 0 17 17 17 279 0 296 -8 8 -47 12 -108 12 -61 0 -100 -4 -108 -12z
m148 -148 l0 -80 -40 0 -40 0 0 80 0 80 40 0 40 0 0 -80z"/>
<path d="M11 1907 c-8 -11 -11 -129 -9 -432 3 -385 4 -419 21 -429 12 -8 22
-8 35 0 16 10 17 42 20 402 l2 392 232 2 c207 3 232 5 242 21 8 12 8 22 0 35
-10 15 -36 17 -271 20 -212 2 -262 0 -272 -11z"/>
<path d="M1852 1908 c-7 -7 -12 -19 -12 -28 0 -37 18 -40 252 -40 l228 0 0
-803 0 -804 -30 5 c-16 2 -46 19 -65 38 -62 58 -148 58 -210 0 -21 -20 -50
-36 -72 -39 -22 -4 -49 -19 -68 -37 -25 -26 -30 -38 -30 -80 0 -43 5 -54 33
-82 l32 -33 210 0 210 0 32 33 33 32 3 911 c2 670 -1 915 -9 925 -16 19 -518
21 -537 2z m310 -1679 c11 -6 26 -26 34 -45 14 -33 17 -35 60 -32 53 3 78 -18
58 -50 -10 -15 -31 -17 -194 -17 -163 0 -184 2 -194 17 -20 32 5 53 58 50 43
-3 46 -1 60 32 22 52 70 71 118 45z"/>
<path d="M252 1668 c-17 -17 -17 -279 0 -296 16 -16 200 -16 216 0 17 17 17
279 0 296 -8 8 -47 12 -108 12 -61 0 -100 -4 -108 -12z m148 -148 l0 -80 -40
0 -40 0 0 80 0 80 40 0 40 0 0 -80z"/>
<path d="M892 1668 c-17 -17 -17 -279 0 -296 16 -16 200 -16 216 0 17 17 17
279 0 296 -8 8 -47 12 -108 12 -61 0 -100 -4 -108 -12z m148 -148 l0 -80 -40
0 -40 0 0 80 0 80 40 0 40 0 0 -80z"/>
<path d="M1292 1668 c-8 -8 -12 -56 -12 -148 0 -92 4 -140 12 -148 16 -16 200
-16 216 0 17 17 17 279 0 296 -8 8 -47 12 -108 12 -61 0 -100 -4 -108 -12z
m148 -148 l0 -80 -40 0 -40 0 0 80 0 80 40 0 40 0 0 -80z"/>
<path d="M1932 1668 c-8 -8 -12 -56 -12 -148 0 -92 4 -140 12 -148 16 -16 200
-16 216 0 17 17 17 279 0 296 -8 8 -47 12 -108 12 -61 0 -100 -4 -108 -12z
m148 -148 l0 -80 -40 0 -40 0 0 80 0 80 40 0 40 0 0 -80z"/>
<path d="M251 1186 c-19 -22 -10 -126 12 -140 25 -16 51 4 55 43 3 29 6 31 42
31 l39 0 3 -111 c3 -94 6 -114 20 -123 13 -8 23 -8 35 0 16 10 18 30 21 149 2
93 -1 142 -9 151 -16 20 -202 20 -218 0z"/>
<path d="M892 1188 c-17 -17 -17 -279 0 -296 16 -16 200 -16 216 0 17 17 17
279 0 296 -16 16 -200 16 -216 0z m148 -148 l0 -80 -40 0 -40 0 0 80 0 80 40
0 40 0 0 -80z"/>
<path d="M1292 1188 c-8 -8 -12 -56 -12 -148 0 -92 4 -140 12 -148 16 -16 200
-16 216 0 17 17 17 279 0 296 -16 16 -200 16 -216 0z m148 -148 l0 -80 -40 0
-40 0 0 80 0 80 40 0 40 0 0 -80z"/>
<path d="M1932 1188 c-8 -8 -12 -56 -12 -148 0 -92 4 -140 12 -148 16 -16 200
-16 216 0 17 17 17 279 0 296 -16 16 -200 16 -216 0z m148 -148 l0 -80 -40 0
-40 0 0 80 0 80 40 0 40 0 0 -80z"/>
<path d="M143 941 c-69 -43 -115 -176 -135 -392 -11 -114 -10 -131 6 -173 21
-55 79 -115 118 -123 l27 -5 3 -116 c3 -97 6 -117 20 -126 13 -8 23 -8 35 0
15 9 19 30 21 125 l3 114 48 23 c31 14 59 37 77 64 28 40 29 45 27 157 -4 327
-118 532 -250 452z m95 -88 c59 -86 106 -404 68 -471 -29 -54 -111 -78 -164
-48 -43 23 -62 65 -62 136 0 89 25 246 49 309 39 104 72 126 109 74z"/>
<path d="M812 708 c-15 -15 -15 -41 0 -56 7 -7 40 -12 80 -12 l68 0 2 -191 c3
-170 5 -193 20 -203 13 -8 23 -8 35 0 16 10 18 33 21 203 l2 191 160 0 160 0
2 -191 c3 -170 5 -193 21 -203 12 -8 22 -8 35 0 15 10 17 33 20 202 l2 191 72
3 c54 2 73 7 82 21 8 12 8 22 0 35 -10 16 -42 17 -390 20 -287 2 -383 -1 -392
-10z"/>
<path d="M1932 708 c-8 -8 -12 -56 -12 -148 0 -92 4 -140 12 -148 16 -16 200
-16 216 0 17 17 17 279 0 296 -16 16 -200 16 -216 0z m148 -148 l0 -80 -40 0
-40 0 0 80 0 80 40 0 40 0 0 -80z"/>
<path d="M1170 465 c-26 -32 13 -81 48 -59 22 14 27 41 12 59 -16 19 -44 19
-60 0z"/>
<path d="M571 146 c-19 -22 -10 -126 12 -140 25 -16 51 4 55 42 l3 32 551 2
c512 3 552 4 562 20 8 13 8 23 0 35 -10 17 -51 18 -591 21 -492 2 -582 0 -592
-12z"/>
</g>
</svg>
